<?xml version="1.0" encoding="utf-8"?>
<!-- Generator: Adobe Illustrator 16.0.0, SVG Export Plug-In . SVG Version: 6.00 Build 0)  -->
<!DOCTYPE svg PUBLIC "-//W3C//DTD SVG 1.1//EN" "http://www.w3.org/Graphics/SVG/1.1/DTD/svg11.dtd">
<svg version="1.1" id="Layer_1" xmlns="http://www.w3.org/2000/svg" xmlns:xlink="http://www.w3.org/1999/xlink" x="0px" y="0px"
	 width="96.23px" height="55.09px" viewBox="0 0 96.23 55.09" enable-background="new 0 0 96.23 55.09" xml:space="preserve">
<path fill="#FBCB43" d="M0,52.102l6.645-1.055V4.922L0.844,4.324V0.492h9.246c1.125,0,2.578-0.082,4.359-0.246
	C16.23,0.083,18.293,0,20.637,0c2.695,0,5.173,0.223,7.436,0.668c2.262,0.445,4.213,1.225,5.854,2.338
	c1.64,1.113,2.918,2.607,3.832,4.482c0.914,1.875,1.371,4.231,1.371,7.066c0,1.828-0.287,3.551-0.861,5.168
	c-0.575,1.617-1.377,3.088-2.408,4.412c-1.032,1.324-2.268,2.491-3.709,3.498c-1.441,1.008-3.041,1.816-4.799,2.426
	c0.117,0.047,0.234,0.094,0.352,0.141c0.117,0.047,0.234,0.094,0.352,0.141c1.102,0.563,2.167,1.436,3.199,2.619
	c1.031,1.184,2.021,2.514,2.971,3.99s1.857,3.012,2.725,4.605c0.867,1.594,1.693,3.064,2.479,4.412
	c0.785,1.348,1.523,2.49,2.215,3.428c0.691,0.938,1.341,1.488,1.951,1.652l3.762,1.055v2.988h-10.16
	c-0.445,0-0.932-0.352-1.459-1.055s-1.096-1.623-1.705-2.76c-0.61-1.137-1.26-2.438-1.951-3.902
	c-0.691-1.465-1.418-2.947-2.18-4.447c-0.762-1.5-1.559-2.965-2.391-4.395c-0.832-1.43-1.7-2.689-2.602-3.779
	c-0.902-1.09-1.834-1.945-2.795-2.566c-0.961-0.621-1.957-0.885-2.988-0.791c-0.821,0.047-1.693,0.07-2.619,0.07
	c-0.926,0-1.928,0-3.006,0v19.617l7.277,1.02v2.988H0V52.102z M13.5,27.492c0.281,0.047,0.697,0.083,1.248,0.105
	c0.55,0.023,1.13,0.041,1.74,0.053c0.609,0.012,1.207,0.023,1.793,0.035c0.585,0.012,1.066,0.018,1.441,0.018
	c1.875,0,3.568-0.234,5.08-0.703c1.512-0.469,2.795-1.201,3.85-2.197c1.055-0.996,1.869-2.273,2.443-3.832
	c0.574-1.559,0.861-3.428,0.861-5.607c0-1.805-0.199-3.439-0.598-4.904c-0.399-1.464-1.067-2.707-2.004-3.727
	c-0.938-1.02-2.192-1.793-3.762-2.32c-1.57-0.527-3.528-0.744-5.871-0.65c-1.148,0.047-2.25,0.088-3.305,0.123
	S14.391,4.066,13.5,4.324V27.492z"/>
<path fill="#0FBCB4" d="M49.227,52.102l5.941-1.02V4.535l-5.801-0.598V0.492h18.387v3.445l-5.73,0.633v24.223L82.027,4.57
	l-5.449-0.633c0-0.585-0.006-1.16-0.018-1.723s-0.018-1.137-0.018-1.723h17.543v3.445l-5.73,0.633L71.867,23.555
	c0.586,0.656,1.266,1.553,2.039,2.689c0.773,1.137,1.605,2.402,2.496,3.797s1.822,2.877,2.795,4.447s1.939,3.129,2.9,4.676
	s1.887,3.023,2.777,4.43s1.711,2.643,2.461,3.709s1.412,1.916,1.986,2.549s1.002,0.949,1.283,0.949l5.625,1.301v2.988H85.367
	c-0.305,0-0.721-0.316-1.248-0.949s-1.131-1.482-1.811-2.549s-1.424-2.297-2.232-3.691s-1.641-2.854-2.496-4.377
	s-1.723-3.059-2.602-4.605s-1.74-3.012-2.584-4.395s-1.652-2.631-2.426-3.744s-1.477-1.986-2.109-2.619l-5.836,6.75v16.207
	l6.434,0.984v2.988h-19.23V52.102z"/>
</svg>
